ffmpeg version N-121303-ga53553a3c7 Copyright (c) 2000-2025 the FFmpeg developers
  built with Apple clang version 16.0.0 (clang-1600.0.26.6)
  configuration: --disable-doc --enable-libx264 --enable-encoder=libx264 --enable-encoder=aac --enable-gpl
  libavutil      60. 13.100 / 60. 13.100
  libavcodec     62. 16.100 / 62. 16.100
  libavformat    62.  6.100 / 62.  6.100
  libavdevice    62.  2.100 / 62.  2.100
  libavfilter    11.  9.100 / 11.  9.100
  libswscale      9.  3.100 /  9.  3.100
  libswresample   6.  2.100 /  6.  2.100
[Parsed_mswitch_0 @ 0x12d804880] [MSwitch Filter] Initializing with 3 inputs, tube_size=30
[Parsed_mswitch_0 @ 0x12d804880] [MSwitch Filter] Uninitialized
[h264 @ 0x12d904e70] non-existing PPS 0 referenced
    Last message repeated 8 times
[h264 @ 0x12d904e70] no frame!
[h264 @ 0x12d904e70] non-existing PPS 0 referenced
    Last message repeated 8 times
[h264 @ 0x12d904e70] no frame!
[h264 @ 0x12d904e70] non-existing PPS 0 referenced
    Last message repeated 8 times
[h264 @ 0x12d904e70] no frame!
[h264 @ 0x12d904e70] non-existing PPS 0 referenced
    Last message repeated 8 times
[h264 @ 0x12d904e70] no frame!
[h264 @ 0x12d904e70] non-existing PPS 0 referenced
    Last message repeated 8 times
[h264 @ 0x12d904e70] no frame!
[h264 @ 0x12d904e70] non-existing PPS 0 referenced
    Last message repeated 8 times
[h264 @ 0x12d904e70] no frame!
[h264 @ 0x12d904e70] non-existing PPS 0 referenced
    Last message repeated 8 times
[h264 @ 0x12d904e70] no frame!
[h264 @ 0x12d904e70] non-existing PPS 0 referenced
    Last message repeated 8 times
[h264 @ 0x12d904e70] no frame!
[h264 @ 0x12d904e70] non-existing PPS 0 referenced
    Last message repeated 8 times
[h264 @ 0x12d904e70] no frame!
[h264 @ 0x12d904e70] non-existing PPS 0 referenced
    Last message repeated 8 times
[h264 @ 0x12d904e70] no frame!
[h264 @ 0x12d904e70] non-existing PPS 0 referenced
    Last message repeated 8 times
[h264 @ 0x12d904e70] no frame!
[h264 @ 0x12d904e70] non-existing PPS 0 referenced
    Last message repeated 8 times
[h264 @ 0x12d904e70] no frame!
[h264 @ 0x12d904e70] non-existing PPS 0 referenced
    Last message repeated 8 times
[h264 @ 0x12d904e70] no frame!
[h264 @ 0x12d904e70] non-existing PPS 0 referenced
    Last message repeated 8 times
[h264 @ 0x12d904e70] no frame!
[h264 @ 0x12d904e70] non-existing PPS 0 referenced
    Last message repeated 8 times
[h264 @ 0x12d904e70] no frame!
[h264 @ 0x12d904e70] non-existing PPS 0 referenced
    Last message repeated 8 times
[h264 @ 0x12d904e70] no frame!
[h264 @ 0x12d904e70] non-existing PPS 0 referenced
    Last message repeated 8 times
[h264 @ 0x12d904e70] no frame!
[h264 @ 0x12d904e70] non-existing PPS 0 referenced
    Last message repeated 8 times
[h264 @ 0x12d904e70] no frame!
[h264 @ 0x12d904e70] non-existing PPS 0 referenced
    Last message repeated 8 times
[h264 @ 0x12d904e70] no frame!
[h264 @ 0x12d904e70] non-existing PPS 0 referenced
    Last message repeated 8 times
[h264 @ 0x12d904e70] no frame!
[h264 @ 0x12d904e70] non-existing PPS 0 referenced
    Last message repeated 8 times
[h264 @ 0x12d904e70] no frame!
Input #0, mpegts, from 'udp://127.0.0.1:12350?fifo_size=1024000&overrun_nonfatal=1&timeout=1000000&buffer_size=65536':
  Duration: N/A, start: 2460.700000, bitrate: N/A
  Program 1 
    Metadata:
      service_name    : Service01
      service_provider: FFmpeg
  Stream #0:0[0x100]: Video: h264 (Constrained Baseline) ([27][0][0][0] / 0x001B), yuv420p(progressive), 1280x720 [SAR 1:1 DAR 16:9], 30 fps, 30 tbr, 90k tbn, start 2460.700000
[h264 @ 0x12c70c0c0] non-existing PPS 0 referenced
    Last message repeated 8 times
[h264 @ 0x12c70c0c0] no frame!
[h264 @ 0x12c70c0c0] non-existing PPS 0 referenced
    Last message repeated 8 times
[h264 @ 0x12c70c0c0] no frame!
[h264 @ 0x12c70c0c0] non-existing PPS 0 referenced
    Last message repeated 8 times
[h264 @ 0x12c70c0c0] no frame!
[h264 @ 0x12c70c0c0] non-existing PPS 0 referenced
    Last message repeated 8 times
[h264 @ 0x12c70c0c0] no frame!
[h264 @ 0x12c70c0c0] non-existing PPS 0 referenced
    Last message repeated 8 times
[h264 @ 0x12c70c0c0] no frame!
[h264 @ 0x12c70c0c0] non-existing PPS 0 referenced
    Last message repeated 8 times
[h264 @ 0x12c70c0c0] no frame!
[h264 @ 0x12c70c0c0] non-existing PPS 0 referenced
    Last message repeated 8 times
[h264 @ 0x12c70c0c0] no frame!
[h264 @ 0x12c70c0c0] non-existing PPS 0 referenced
    Last message repeated 8 times
[h264 @ 0x12c70c0c0] no frame!
[h264 @ 0x12c70c0c0] non-existing PPS 0 referenced
    Last message repeated 8 times
[h264 @ 0x12c70c0c0] no frame!
[h264 @ 0x12c70c0c0] non-existing PPS 0 referenced
    Last message repeated 8 times
[h264 @ 0x12c70c0c0] no frame!
[h264 @ 0x12c70c0c0] non-existing PPS 0 referenced
    Last message repeated 8 times
[h264 @ 0x12c70c0c0] no frame!
[h264 @ 0x12c70c0c0] non-existing PPS 0 referenced
    Last message repeated 8 times
[h264 @ 0x12c70c0c0] no frame!
[h264 @ 0x12c70c0c0] non-existing PPS 0 referenced
    Last message repeated 8 times
[h264 @ 0x12c70c0c0] no frame!
[h264 @ 0x12c70c0c0] non-existing PPS 0 referenced
    Last message repeated 8 times
[h264 @ 0x12c70c0c0] no frame!
[h264 @ 0x12c70c0c0] non-existing PPS 0 referenced
    Last message repeated 8 times
[h264 @ 0x12c70c0c0] no frame!
[h264 @ 0x12c70c0c0] non-existing PPS 0 referenced
    Last message repeated 8 times
[h264 @ 0x12c70c0c0] no frame!
[h264 @ 0x12c70c0c0] non-existing PPS 0 referenced
    Last message repeated 8 times
[h264 @ 0x12c70c0c0] no frame!
[h264 @ 0x12c70c0c0] non-existing PPS 0 referenced
    Last message repeated 8 times
[h264 @ 0x12c70c0c0] no frame!
[h264 @ 0x12c70c0c0] non-existing PPS 0 referenced
    Last message repeated 8 times
[h264 @ 0x12c70c0c0] no frame!
[h264 @ 0x12c70c0c0] non-existing PPS 0 referenced
    Last message repeated 8 times
[h264 @ 0x12c70c0c0] no frame!
[h264 @ 0x12c70c0c0] non-existing PPS 0 referenced
    Last message repeated 8 times
[h264 @ 0x12c70c0c0] no frame!
[h264 @ 0x12c70c0c0] non-existing PPS 0 referenced
    Last message repeated 8 times
[h264 @ 0x12c70c0c0] no frame!
[h264 @ 0x12c70c0c0] non-existing PPS 0 referenced
    Last message repeated 8 times
[h264 @ 0x12c70c0c0] no frame!
[h264 @ 0x12c70c0c0] non-existing PPS 0 referenced
    Last message repeated 8 times
[h264 @ 0x12c70c0c0] no frame!
[h264 @ 0x12c70c0c0] non-existing PPS 0 referenced
    Last message repeated 8 times
[h264 @ 0x12c70c0c0] no frame!
[h264 @ 0x12c70c0c0] non-existing PPS 0 referenced
    Last message repeated 8 times
[h264 @ 0x12c70c0c0] no frame!
Input #1, mpegts, from 'udp://127.0.0.1:12351?fifo_size=1024000&overrun_nonfatal=1&timeout=1000000&buffer_size=65536':
  Duration: N/A, start: 2464.533333, bitrate: N/A
  Program 1 
    Metadata:
      service_name    : Service01
      service_provider: FFmpeg
  Stream #1:0[0x100]: Video: h264 (Constrained Baseline) ([27][0][0][0] / 0x001B), yuv420p(progressive), 1280x720 [SAR 1:1 DAR 16:9], 30 fps, 30 tbr, 90k tbn, start 2464.533333
[h264 @ 0x105c0ce20] non-existing PPS 0 referenced
    Last message repeated 8 times
[h264 @ 0x105c0ce20] no frame!
[h264 @ 0x105c0ce20] non-existing PPS 0 referenced
    Last message repeated 8 times
[h264 @ 0x105c0ce20] no frame!
[h264 @ 0x105c0ce20] non-existing PPS 0 referenced
    Last message repeated 8 times
[h264 @ 0x105c0ce20] no frame!
[h264 @ 0x105c0ce20] non-existing PPS 0 referenced
    Last message repeated 8 times
[h264 @ 0x105c0ce20] no frame!
[h264 @ 0x105c0ce20] non-existing PPS 0 referenced
    Last message repeated 8 times
[h264 @ 0x105c0ce20] no frame!
[h264 @ 0x105c0ce20] non-existing PPS 0 referenced
    Last message repeated 8 times
[h264 @ 0x105c0ce20] no frame!
[h264 @ 0x105c0ce20] non-existing PPS 0 referenced
    Last message repeated 8 times
[h264 @ 0x105c0ce20] no frame!
[h264 @ 0x105c0ce20] non-existing PPS 0 referenced
    Last message repeated 8 times
[h264 @ 0x105c0ce20] no frame!
[h264 @ 0x105c0ce20] non-existing PPS 0 referenced
    Last message repeated 8 times
[h264 @ 0x105c0ce20] no frame!
[h264 @ 0x105c0ce20] non-existing PPS 0 referenced
    Last message repeated 8 times
[h264 @ 0x105c0ce20] no frame!
[h264 @ 0x105c0ce20] non-existing PPS 0 referenced
    Last message repeated 8 times
[h264 @ 0x105c0ce20] no frame!
[h264 @ 0x105c0ce20] non-existing PPS 0 referenced
    Last message repeated 8 times
[h264 @ 0x105c0ce20] no frame!
[h264 @ 0x105c0ce20] non-existing PPS 0 referenced
    Last message repeated 8 times
[h264 @ 0x105c0ce20] no frame!
[h264 @ 0x105c0ce20] non-existing PPS 0 referenced
    Last message repeated 8 times
[h264 @ 0x105c0ce20] no frame!
[h264 @ 0x105c0ce20] non-existing PPS 0 referenced
    Last message repeated 8 times
[h264 @ 0x105c0ce20] no frame!
[h264 @ 0x105c0ce20] non-existing PPS 0 referenced
    Last message repeated 8 times
[h264 @ 0x105c0ce20] no frame!
[h264 @ 0x105c0ce20] non-existing PPS 0 referenced
    Last message repeated 8 times
[h264 @ 0x105c0ce20] no frame!
[h264 @ 0x105c0ce20] non-existing PPS 0 referenced
    Last message repeated 8 times
[h264 @ 0x105c0ce20] no frame!
[h264 @ 0x105c0ce20] non-existing PPS 0 referenced
    Last message repeated 8 times
[h264 @ 0x105c0ce20] no frame!
[h264 @ 0x105c0ce20] non-existing PPS 0 referenced
    Last message repeated 8 times
[h264 @ 0x105c0ce20] no frame!
[h264 @ 0x105c0ce20] non-existing PPS 0 referenced
    Last message repeated 8 times
[h264 @ 0x105c0ce20] no frame!
Input #2, mpegts, from 'udp://127.0.0.1:12352?fifo_size=1024000&overrun_nonfatal=1&timeout=1000000&buffer_size=65536':
  Duration: N/A, start: 2468.700000, bitrate: N/A
  Program 1 
    Metadata:
      service_name    : Service01
      service_provider: FFmpeg
  Stream #2:0[0x100]: Video: h264 (Constrained Baseline) ([27][0][0][0] / 0x001B), yuv420p(progressive), 1280x720 [SAR 1:1 DAR 16:9], 30 fps, 30 tbr, 90k tbn, start 2468.700000
MSwitch enabled, initializing...
Debug: sources_backup = s0=local;s1=local;s2=local
[MSwitch] Initializing native MSwitch...
[MSwitch] Parsing sources: s0=local;s1=local;s2=local
[MSwitch] Successfully parsed 3 sources
[MSwitch] Configuration: mode=graceful, ingest=hot, sources=3
[MSwitch] Active source: 0 (s0)
[MSwitch] Webhook config: enable=1, port=8099
[MSwitch] Command queue initialized
[MSwitch] Starting webhook server on port 8099
[MSwitch] Starting webhook server thread on port 8099
[MSwitch] Webhook server listening on port 8099
[MSwitch] Webhook server started on port 8099
[MSwitch] [DEBUG] Auto-failover initialized: enable=0, recovery_delay=5000
[MSwitch] [DEBUG] Auto-failover disabled by default
[MSwitch] Skipping subprocess creation for lavfi inputs
[MSwitch] Skipping UDP proxy thread for lavfi inputs
[MSwitch] MSwitch initialized with 3 sources
[MSwitch] MSwitch proxy listening on ports 12350-12352, forwarding to port 12400
[MSwitch] Interactive commands: 0-2 (switch source), m (status), ? (help)
[MSwitch] Starting MSwitch controller
[MSwitch] Health monitoring thread disabled - using immediate duplicate frame detection
[MSwitch] MSwitch controller started successfully
Stream mapping:
  Stream #0:0 (h264) -> mswitch
  Stream #1:0 (h264) -> mswitch
  Stream #2:0 (h264) -> mswitch
  fps:default -> Stream #0:0 (libx264)
Press [q] to stop, [?] for help
[Parsed_mswitch_0 @ 0x105b0e0a0] [MSwitch Filter] Initializing with 3 inputs, tube_size=30
[Parsed_mswitch_0 @ 0x105b0e0a0] [MSwitch Filter] Configured: 1280x720, active_input=0
[fc#0 @ 0x12e008200] [MSwitch] Found mswitch filter, connecting to MSwitch
[MSwitch] Filter-based switching initialized (streamselect filter attached)
[MSwitch] Filter setup complete - will use runtime switching via avfilter_process_command
[Parsed_mswitch_0 @ 0x105b0e0a0] [MSwitch Filter] Startup phase complete - all 3 sources ingested
[Parsed_mswitch_0 @ 0x105b0e0a0] [MSwitch] Buffer status (frame 0):
[Parsed_mswitch_0 @ 0x105b0e0a0]   Input 0: 1 frames queued (active: YES)
[Parsed_mswitch_0 @ 0x105b0e0a0]   Input 1: 2 frames queued (active: NO)
[Parsed_mswitch_0 @ 0x105b0e0a0]   Input 2: 1 frames queued (active: NO)
[libx264 @ 0x105d0a4e0] using SAR=1/1
[libx264 @ 0x105d0a4e0] using cpu capabilities: ARMv8 NEON DotProd I8MM
[libx264 @ 0x105d0a4e0] profile Constrained Baseline, level 3.1, 4:2:0, 8-bit
Output #0, mpegts, to 'test_restored_logic.mts':
  Metadata:
    encoder         : Lavf62.6.100
  Stream #0:0: Video: h264, yuv420p(tv, progressive), 1280x720 [SAR 1:1 DAR 16:9], q=2-31, 30 fps, 90k tbn
    Metadata:
      encoder         : Lavc62.16.100 libx264
    Side data:
      CPB properties: bitrate max/min/avg: 0/0/0 buffer size: 0 vbv_delay: N/A
[Parsed_mswitch_0 @ 0x105b0e0a0] [MSwitch] Buffer status (frame 10):
[Parsed_mswitch_0 @ 0x105b0e0a0]   Input 0: 0 frames queued (active: YES)
[Parsed_mswitch_0 @ 0x105b0e0a0]   Input 1: 2 frames queued (active: NO)
[Parsed_mswitch_0 @ 0x105b0e0a0]   Input 2: 2 frames queued (active: NO)
[Parsed_mswitch_0 @ 0x105b0e0a0] [MSwitch] Buffer status (frame 20):
[Parsed_mswitch_0 @ 0x105b0e0a0]   Input 0: 0 frames queued (active: YES)
[Parsed_mswitch_0 @ 0x105b0e0a0]   Input 1: 2 frames queued (active: NO)
[Parsed_mswitch_0 @ 0x105b0e0a0]   Input 2: 2 frames queued (active: NO)
[Parsed_mswitch_0 @ 0x105b0e0a0] [MSwitch] Buffer status (frame 30):
[Parsed_mswitch_0 @ 0x105b0e0a0]   Input 0: 0 frames queued (active: YES)
[Parsed_mswitch_0 @ 0x105b0e0a0]   Input 1: 2 frames queued (active: NO)
[Parsed_mswitch_0 @ 0x105b0e0a0]   Input 2: 2 frames queued (active: NO)
[Parsed_mswitch_0 @ 0x105b0e0a0] [MSwitch] Buffer status (frame 40):
[Parsed_mswitch_0 @ 0x105b0e0a0]   Input 0: 0 frames queued (active: YES)
[Parsed_mswitch_0 @ 0x105b0e0a0]   Input 1: 2 frames queued (active: NO)
[Parsed_mswitch_0 @ 0x105b0e0a0]   Input 2: 2 frames queued (active: NO)
[Parsed_mswitch_0 @ 0x105b0e0a0] [MSwitch] Buffer status (frame 50):
[Parsed_mswitch_0 @ 0x105b0e0a0]   Input 0: 0 frames queued (active: YES)
[Parsed_mswitch_0 @ 0x105b0e0a0]   Input 1: 2 frames queued (active: NO)
[Parsed_mswitch_0 @ 0x105b0e0a0]   Input 2: 2 frames queued (active: NO)
[Parsed_mswitch_0 @ 0x105b0e0a0] [MSwitch] Buffer status (frame 60):
[Parsed_mswitch_0 @ 0x105b0e0a0]   Input 0: 0 frames queued (active: YES)
[Parsed_mswitch_0 @ 0x105b0e0a0]   Input 1: 2 frames queued (active: NO)
[Parsed_mswitch_0 @ 0x105b0e0a0]   Input 2: 2 frames queued (active: NO)
[Parsed_mswitch_0 @ 0x105b0e0a0] [MSwitch] Buffer status (frame 70):
[Parsed_mswitch_0 @ 0x105b0e0a0]   Input 0: 0 frames queued (active: YES)
[Parsed_mswitch_0 @ 0x105b0e0a0]   Input 1: 2 frames queued (active: NO)
[Parsed_mswitch_0 @ 0x105b0e0a0]   Input 2: 2 frames queued (active: NO)
[Parsed_mswitch_0 @ 0x105b0e0a0] [MSwitch] Buffer status (frame 80):
[Parsed_mswitch_0 @ 0x105b0e0a0]   Input 0: 0 frames queued (active: YES)
[Parsed_mswitch_0 @ 0x105b0e0a0]   Input 1: 2 frames queued (active: NO)
[Parsed_mswitch_0 @ 0x105b0e0a0]   Input 2: 2 frames queued (active: NO)
[Parsed_mswitch_0 @ 0x105b0e0a0] [MSwitch] Buffer status (frame 90):
[Parsed_mswitch_0 @ 0x105b0e0a0]   Input 0: 0 frames queued (active: YES)
[Parsed_mswitch_0 @ 0x105b0e0a0]   Input 1: 2 frames queued (active: NO)
[Parsed_mswitch_0 @ 0x105b0e0a0]   Input 2: 2 frames queued (active: NO)
[Parsed_mswitch_0 @ 0x105b0e0a0] [MSwitch] Buffer status (frame 100):
[Parsed_mswitch_0 @ 0x105b0e0a0]   Input 0: 0 frames queued (active: YES)
[Parsed_mswitch_0 @ 0x105b0e0a0]   Input 1: 2 frames queued (active: NO)
[Parsed_mswitch_0 @ 0x105b0e0a0]   Input 2: 2 frames queued (active: NO)
[Parsed_mswitch_0 @ 0x105b0e0a0] [MSwitch] Buffer status (frame 110):
[Parsed_mswitch_0 @ 0x105b0e0a0]   Input 0: 0 frames queued (active: YES)
[Parsed_mswitch_0 @ 0x105b0e0a0]   Input 1: 2 frames queued (active: NO)
[Parsed_mswitch_0 @ 0x105b0e0a0]   Input 2: 2 frames queued (active: NO)
[Parsed_mswitch_0 @ 0x105b0e0a0] [MSwitch] Buffer status (frame 120):
[Parsed_mswitch_0 @ 0x105b0e0a0]   Input 0: 0 frames queued (active: YES)
[Parsed_mswitch_0 @ 0x105b0e0a0]   Input 1: 2 frames queued (active: NO)
[Parsed_mswitch_0 @ 0x105b0e0a0]   Input 2: 2 frames queued (active: NO)
[Parsed_mswitch_0 @ 0x105b0e0a0] [MSwitch] Buffer status (frame 130):
[Parsed_mswitch_0 @ 0x105b0e0a0]   Input 0: 0 frames queued (active: YES)
[Parsed_mswitch_0 @ 0x105b0e0a0]   Input 1: 2 frames queued (active: NO)
[Parsed_mswitch_0 @ 0x105b0e0a0]   Input 2: 2 frames queued (active: NO)
[Parsed_mswitch_0 @ 0x105b0e0a0] [MSwitch] Buffer status (frame 140):
[Parsed_mswitch_0 @ 0x105b0e0a0]   Input 0: 0 frames queued (active: YES)
[Parsed_mswitch_0 @ 0x105b0e0a0]   Input 1: 2 frames queued (active: NO)
[Parsed_mswitch_0 @ 0x105b0e0a0]   Input 2: 2 frames queued (active: NO)
[Parsed_mswitch_0 @ 0x105b0e0a0] [MSwitch] Buffer status (frame 150):
[Parsed_mswitch_0 @ 0x105b0e0a0]   Input 0: 0 frames queued (active: YES)
[Parsed_mswitch_0 @ 0x105b0e0a0]   Input 1: 2 frames queued (active: NO)
[Parsed_mswitch_0 @ 0x105b0e0a0]   Input 2: 2 frames queued (active: NO)
[Parsed_mswitch_0 @ 0x105b0e0a0] [MSwitch] Buffer status (frame 160):
[Parsed_mswitch_0 @ 0x105b0e0a0]   Input 0: 0 frames queued (active: YES)
[Parsed_mswitch_0 @ 0x105b0e0a0]   Input 1: 2 frames queued (active: NO)
[Parsed_mswitch_0 @ 0x105b0e0a0]   Input 2: 2 frames queued (active: NO)
[Parsed_mswitch_0 @ 0x105b0e0a0] [MSwitch] Buffer status (frame 170):
[Parsed_mswitch_0 @ 0x105b0e0a0]   Input 0: 0 frames queued (active: YES)
[Parsed_mswitch_0 @ 0x105b0e0a0]   Input 1: 2 frames queued (active: NO)
[Parsed_mswitch_0 @ 0x105b0e0a0]   Input 2: 2 frames queued (active: NO)
[Parsed_mswitch_0 @ 0x105b0e0a0] [MSwitch] Buffer status (frame 180):
[Parsed_mswitch_0 @ 0x105b0e0a0]   Input 0: 0 frames queued (active: YES)
[Parsed_mswitch_0 @ 0x105b0e0a0]   Input 1: 2 frames queued (active: NO)
[Parsed_mswitch_0 @ 0x105b0e0a0]   Input 2: 2 frames queued (active: NO)
[Parsed_mswitch_0 @ 0x105b0e0a0] [MSwitch] Buffer status (frame 190):
[Parsed_mswitch_0 @ 0x105b0e0a0]   Input 0: 0 frames queued (active: YES)
[Parsed_mswitch_0 @ 0x105b0e0a0]   Input 1: 2 frames queued (active: NO)
[Parsed_mswitch_0 @ 0x105b0e0a0]   Input 2: 2 frames queued (active: NO)
[Parsed_mswitch_0 @ 0x105b0e0a0] [MSwitch] Buffer status (frame 200):
[Parsed_mswitch_0 @ 0x105b0e0a0]   Input 0: 0 frames queued (active: YES)
[Parsed_mswitch_0 @ 0x105b0e0a0]   Input 1: 2 frames queued (active: NO)
[Parsed_mswitch_0 @ 0x105b0e0a0]   Input 2: 2 frames queued (active: NO)
[Parsed_mswitch_0 @ 0x105b0e0a0] [MSwitch] Buffer status (frame 210):
[Parsed_mswitch_0 @ 0x105b0e0a0]   Input 0: 0 frames queued (active: YES)
[Parsed_mswitch_0 @ 0x105b0e0a0]   Input 1: 2 frames queued (active: NO)
[Parsed_mswitch_0 @ 0x105b0e0a0]   Input 2: 2 frames queued (active: NO)
[Parsed_mswitch_0 @ 0x105b0e0a0] [MSwitch] Buffer status (frame 220):
[Parsed_mswitch_0 @ 0x105b0e0a0]   Input 0: 0 frames queued (active: YES)
[Parsed_mswitch_0 @ 0x105b0e0a0]   Input 1: 2 frames queued (active: NO)
[Parsed_mswitch_0 @ 0x105b0e0a0]   Input 2: 2 frames queued (active: NO)
[Parsed_mswitch_0 @ 0x105b0e0a0] [MSwitch] Buffer status (frame 230):
[Parsed_mswitch_0 @ 0x105b0e0a0]   Input 0: 0 frames queued (active: YES)
[Parsed_mswitch_0 @ 0x105b0e0a0]   Input 1: 2 frames queued (active: NO)
[Parsed_mswitch_0 @ 0x105b0e0a0]   Input 2: 2 frames queued (active: NO)
[Parsed_mswitch_0 @ 0x105b0e0a0] [MSwitch] Buffer status (frame 240):
[Parsed_mswitch_0 @ 0x105b0e0a0]   Input 0: 0 frames queued (active: YES)
[Parsed_mswitch_0 @ 0x105b0e0a0]   Input 1: 2 frames queued (active: NO)
[Parsed_mswitch_0 @ 0x105b0e0a0]   Input 2: 2 frames queued (active: NO)
[Parsed_mswitch_0 @ 0x105b0e0a0] [MSwitch] Buffer status (frame 250):
[Parsed_mswitch_0 @ 0x105b0e0a0]   Input 0: 0 frames queued (active: YES)
[Parsed_mswitch_0 @ 0x105b0e0a0]   Input 1: 2 frames queued (active: NO)
[Parsed_mswitch_0 @ 0x105b0e0a0]   Input 2: 2 frames queued (active: NO)
[Parsed_mswitch_0 @ 0x105b0e0a0] [MSwitch] Buffer status (frame 260):
[Parsed_mswitch_0 @ 0x105b0e0a0]   Input 0: 0 frames queued (active: YES)
[Parsed_mswitch_0 @ 0x105b0e0a0]   Input 1: 2 frames queued (active: NO)
[Parsed_mswitch_0 @ 0x105b0e0a0]   Input 2: 2 frames queued (active: NO)
[Parsed_mswitch_0 @ 0x105b0e0a0] [MSwitch] Buffer status (frame 270):
[Parsed_mswitch_0 @ 0x105b0e0a0]   Input 0: 0 frames queued (active: YES)
[Parsed_mswitch_0 @ 0x105b0e0a0]   Input 1: 2 frames queued (active: NO)
[Parsed_mswitch_0 @ 0x105b0e0a0]   Input 2: 2 frames queued (active: NO)
[Parsed_mswitch_0 @ 0x105b0e0a0] [MSwitch] Buffer status (frame 280):
[Parsed_mswitch_0 @ 0x105b0e0a0]   Input 0: 0 frames queued (active: YES)
[Parsed_mswitch_0 @ 0x105b0e0a0]   Input 1: 2 frames queued (active: NO)
[Parsed_mswitch_0 @ 0x105b0e0a0]   Input 2: 2 frames queued (active: NO)
[Parsed_mswitch_0 @ 0x105b0e0a0] [MSwitch] Buffer status (frame 290):
[Parsed_mswitch_0 @ 0x105b0e0a0]   Input 0: 0 frames queued (active: YES)
[Parsed_mswitch_0 @ 0x105b0e0a0]   Input 1: 2 frames queued (active: NO)
[Parsed_mswitch_0 @ 0x105b0e0a0]   Input 2: 2 frames queued (active: NO)
[Parsed_mswitch_0 @ 0x105b0e0a0] [MSwitch] Buffer status (frame 300):
[Parsed_mswitch_0 @ 0x105b0e0a0]   Input 0: 0 frames queued (active: YES)
[Parsed_mswitch_0 @ 0x105b0e0a0]   Input 1: 2 frames queued (active: NO)
[Parsed_mswitch_0 @ 0x105b0e0a0]   Input 2: 2 frames queued (active: NO)
[Parsed_mswitch_0 @ 0x105b0e0a0] [MSwitch] Buffer status (frame 310):
[Parsed_mswitch_0 @ 0x105b0e0a0]   Input 0: 0 frames queued (active: YES)
[Parsed_mswitch_0 @ 0x105b0e0a0]   Input 1: 2 frames queued (active: NO)
[Parsed_mswitch_0 @ 0x105b0e0a0]   Input 2: 2 frames queued (active: NO)
[Parsed_mswitch_0 @ 0x105b0e0a0] [MSwitch] Buffer status (frame 320):
[Parsed_mswitch_0 @ 0x105b0e0a0]   Input 0: 0 frames queued (active: YES)
[Parsed_mswitch_0 @ 0x105b0e0a0]   Input 1: 2 frames queued (active: NO)
[Parsed_mswitch_0 @ 0x105b0e0a0]   Input 2: 2 frames queued (active: NO)
[Parsed_mswitch_0 @ 0x105b0e0a0] [MSwitch] Buffer status (frame 330):
[Parsed_mswitch_0 @ 0x105b0e0a0]   Input 0: 0 frames queued (active: YES)
[Parsed_mswitch_0 @ 0x105b0e0a0]   Input 1: 2 frames queued (active: NO)
[Parsed_mswitch_0 @ 0x105b0e0a0]   Input 2: 2 frames queued (active: NO)
[Parsed_mswitch_0 @ 0x105b0e0a0] [MSwitch] Buffer status (frame 340):
[Parsed_mswitch_0 @ 0x105b0e0a0]   Input 0: 0 frames queued (active: YES)
[Parsed_mswitch_0 @ 0x105b0e0a0]   Input 1: 2 frames queued (active: NO)
[Parsed_mswitch_0 @ 0x105b0e0a0]   Input 2: 2 frames queued (active: NO)
[Parsed_mswitch_0 @ 0x105b0e0a0] [MSwitch] Buffer status (frame 350):
[Parsed_mswitch_0 @ 0x105b0e0a0]   Input 0: 0 frames queued (active: YES)
[Parsed_mswitch_0 @ 0x105b0e0a0]   Input 1: 2 frames queued (active: NO)
[Parsed_mswitch_0 @ 0x105b0e0a0]   Input 2: 2 frames queued (active: NO)
[Parsed_mswitch_0 @ 0x105b0e0a0] [MSwitch] Buffer status (frame 360):
[Parsed_mswitch_0 @ 0x105b0e0a0]   Input 0: 0 frames queued (active: YES)
[Parsed_mswitch_0 @ 0x105b0e0a0]   Input 1: 2 frames queued (active: NO)
[Parsed_mswitch_0 @ 0x105b0e0a0]   Input 2: 2 frames queued (active: NO)
[Parsed_mswitch_0 @ 0x105b0e0a0] [MSwitch] Buffer status (frame 370):
[Parsed_mswitch_0 @ 0x105b0e0a0]   Input 0: 0 frames queued (active: YES)
[Parsed_mswitch_0 @ 0x105b0e0a0]   Input 1: 2 frames queued (active: NO)
[Parsed_mswitch_0 @ 0x105b0e0a0]   Input 2: 2 frames queued (active: NO)
[Parsed_mswitch_0 @ 0x105b0e0a0] [MSwitch] Buffer status (frame 380):
[Parsed_mswitch_0 @ 0x105b0e0a0]   Input 0: 0 frames queued (active: YES)
[Parsed_mswitch_0 @ 0x105b0e0a0]   Input 1: 2 frames queued (active: NO)
[Parsed_mswitch_0 @ 0x105b0e0a0]   Input 2: 2 frames queued (active: NO)
[Parsed_mswitch_0 @ 0x105b0e0a0] [MSwitch] Buffer status (frame 390):
[Parsed_mswitch_0 @ 0x105b0e0a0]   Input 0: 0 frames queued (active: YES)
[Parsed_mswitch_0 @ 0x105b0e0a0]   Input 1: 2 frames queued (active: NO)
[Parsed_mswitch_0 @ 0x105b0e0a0]   Input 2: 2 frames queued (active: NO)
[Parsed_mswitch_0 @ 0x105b0e0a0] [MSwitch] Buffer status (frame 400):
[Parsed_mswitch_0 @ 0x105b0e0a0]   Input 0: 0 frames queued (active: YES)
[Parsed_mswitch_0 @ 0x105b0e0a0]   Input 1: 2 frames queued (active: NO)
[Parsed_mswitch_0 @ 0x105b0e0a0]   Input 2: 2 frames queued (active: NO)
[Parsed_mswitch_0 @ 0x105b0e0a0] [MSwitch] Buffer status (frame 410):
[Parsed_mswitch_0 @ 0x105b0e0a0]   Input 0: 0 frames queued (active: YES)
[Parsed_mswitch_0 @ 0x105b0e0a0]   Input 1: 2 frames queued (active: NO)
[Parsed_mswitch_0 @ 0x105b0e0a0]   Input 2: 2 frames queued (active: NO)
[Parsed_mswitch_0 @ 0x105b0e0a0] [MSwitch] Buffer status (frame 420):
[Parsed_mswitch_0 @ 0x105b0e0a0]   Input 0: 0 frames queued (active: YES)
[Parsed_mswitch_0 @ 0x105b0e0a0]   Input 1: 2 frames queued (active: NO)
[Parsed_mswitch_0 @ 0x105b0e0a0]   Input 2: 2 frames queued (active: NO)
[Parsed_mswitch_0 @ 0x105b0e0a0] [MSwitch] Buffer status (frame 430):
[Parsed_mswitch_0 @ 0x105b0e0a0]   Input 0: 0 frames queued (active: YES)
[Parsed_mswitch_0 @ 0x105b0e0a0]   Input 1: 2 frames queued (active: NO)
[Parsed_mswitch_0 @ 0x105b0e0a0]   Input 2: 2 frames queued (active: NO)
[Parsed_mswitch_0 @ 0x105b0e0a0] [MSwitch] Buffer status (frame 440):
[Parsed_mswitch_0 @ 0x105b0e0a0]   Input 0: 0 frames queued (active: YES)
[Parsed_mswitch_0 @ 0x105b0e0a0]   Input 1: 2 frames queued (active: NO)
[Parsed_mswitch_0 @ 0x105b0e0a0]   Input 2: 2 frames queued (active: NO)
[Parsed_mswitch_0 @ 0x105b0e0a0] [MSwitch] Buffer status (frame 450):
[Parsed_mswitch_0 @ 0x105b0e0a0]   Input 0: 0 frames queued (active: YES)
[Parsed_mswitch_0 @ 0x105b0e0a0]   Input 1: 2 frames queued (active: NO)
[Parsed_mswitch_0 @ 0x105b0e0a0]   Input 2: 2 frames queued (active: NO)
[Parsed_mswitch_0 @ 0x105b0e0a0] [MSwitch] Buffer status (frame 460):
[Parsed_mswitch_0 @ 0x105b0e0a0]   Input 0: 0 frames queued (active: YES)
[Parsed_mswitch_0 @ 0x105b0e0a0]   Input 1: 2 frames queued (active: NO)
[Parsed_mswitch_0 @ 0x105b0e0a0]   Input 2: 2 frames queued (active: NO)
[Parsed_mswitch_0 @ 0x105b0e0a0] [MSwitch] Buffer status (frame 470):
[Parsed_mswitch_0 @ 0x105b0e0a0]   Input 0: 0 frames queued (active: YES)
[Parsed_mswitch_0 @ 0x105b0e0a0]   Input 1: 2 frames queued (active: NO)
[Parsed_mswitch_0 @ 0x105b0e0a0]   Input 2: 2 frames queued (active: NO)
[Parsed_mswitch_0 @ 0x105b0e0a0] [MSwitch] Buffer status (frame 480):
[Parsed_mswitch_0 @ 0x105b0e0a0]   Input 0: 0 frames queued (active: YES)
[Parsed_mswitch_0 @ 0x105b0e0a0]   Input 1: 2 frames queued (active: NO)
[Parsed_mswitch_0 @ 0x105b0e0a0]   Input 2: 2 frames queued (active: NO)
[Parsed_mswitch_0 @ 0x105b0e0a0] [MSwitch] Buffer status (frame 490):
[Parsed_mswitch_0 @ 0x105b0e0a0]   Input 0: 0 frames queued (active: YES)
[Parsed_mswitch_0 @ 0x105b0e0a0]   Input 1: 2 frames queued (active: NO)
[Parsed_mswitch_0 @ 0x105b0e0a0]   Input 2: 2 frames queued (active: NO)
[Parsed_mswitch_0 @ 0x105b0e0a0] [MSwitch] Buffer status (frame 500):
[Parsed_mswitch_0 @ 0x105b0e0a0]   Input 0: 0 frames queued (active: YES)
[Parsed_mswitch_0 @ 0x105b0e0a0]   Input 1: 2 frames queued (active: NO)
[Parsed_mswitch_0 @ 0x105b0e0a0]   Input 2: 2 frames queued (active: NO)
[Parsed_mswitch_0 @ 0x105b0e0a0] [MSwitch] Buffer status (frame 510):
[Parsed_mswitch_0 @ 0x105b0e0a0]   Input 0: 0 frames queued (active: YES)
[Parsed_mswitch_0 @ 0x105b0e0a0]   Input 1: 2 frames queued (active: NO)
[Parsed_mswitch_0 @ 0x105b0e0a0]   Input 2: 2 frames queued (active: NO)
[BUFFER_TRACK] FFmpeg - Phase: startup, time: 1759556355631ms, active: 0
frame=  521 fps=0.0 q=16.0 size=    1280KiB time=00:00:17.36 bitrate= 603.8kbits/s dup=21 drop=0 speed=34.7x elapsed=0:00:00.50    [Parsed_mswitch_0 @ 0x105b0e0a0] [MSwitch] Buffer status (frame 520):
[Parsed_mswitch_0 @ 0x105b0e0a0]   Input 0: 0 frames queued (active: YES)
[Parsed_mswitch_0 @ 0x105b0e0a0]   Input 1: 2 frames queued (active: NO)
[Parsed_mswitch_0 @ 0x105b0e0a0]   Input 2: 2 frames queued (active: NO)
frame=  535 fps=532 q=18.0 size=    1280KiB time=00:00:17.83 bitrate= 588.0kbits/s dup=21 drop=0 speed=17.7x elapsed=0:00:01.00    [Parsed_mswitch_0 @ 0x105b0e0a0] [MSwitch] Buffer status (frame 530):
[Parsed_mswitch_0 @ 0x105b0e0a0]   Input 0: 0 frames queued (active: YES)
[Parsed_mswitch_0 @ 0x105b0e0a0]   Input 1: 2 frames queued (active: NO)
[Parsed_mswitch_0 @ 0x105b0e0a0]   Input 2: 2 frames queued (active: NO)
[Parsed_mswitch_0 @ 0x105b0e0a0] [MSwitch] Buffer status (frame 540):
[Parsed_mswitch_0 @ 0x105b0e0a0]   Input 0: 0 frames queued (active: YES)
[Parsed_mswitch_0 @ 0x105b0e0a0]   Input 1: 2 frames queued (active: NO)
[Parsed_mswitch_0 @ 0x105b0e0a0]   Input 2: 2 frames queued (active: NO)
frame=  551 fps=365 q=16.0 size=    1536KiB time=00:00:18.36 bitrate= 685.1kbits/s dup=21 drop=0 speed=12.2x elapsed=0:00:01.51    [Parsed_mswitch_0 @ 0x105b0e0a0] [MSwitch] Buffer status (frame 550):
[Parsed_mswitch_0 @ 0x105b0e0a0]   Input 0: 0 frames queued (active: YES)
[Parsed_mswitch_0 @ 0x105b0e0a0]   Input 1: 2 frames queued (active: NO)
[Parsed_mswitch_0 @ 0x105b0e0a0]   Input 2: 2 frames queued (active: NO)
frame=  566 fps=281 q=16.0 size=    1536KiB time=00:00:18.86 bitrate= 666.9kbits/s dup=21 drop=0 speed=9.37x elapsed=0:00:02.01    [Parsed_mswitch_0 @ 0x105b0e0a0] [MSwitch] Buffer status (frame 560):
[Parsed_mswitch_0 @ 0x105b0e0a0]   Input 0: 0 frames queued (active: YES)
[Parsed_mswitch_0 @ 0x105b0e0a0]   Input 1: 2 frames queued (active: NO)
[Parsed_mswitch_0 @ 0x105b0e0a0]   Input 2: 2 frames queued (active: NO)
[Parsed_mswitch_0 @ 0x105b0e0a0] [MSwitch] Buffer status (frame 570):
[Parsed_mswitch_0 @ 0x105b0e0a0]   Input 0: 0 frames queued (active: YES)
[Parsed_mswitch_0 @ 0x105b0e0a0]   Input 1: 2 frames queued (active: NO)
[Parsed_mswitch_0 @ 0x105b0e0a0]   Input 2: 2 frames queued (active: NO)
[BUFFER_TRACK] FFmpeg - Phase: startup, time: 1759556357648ms, active: 0
frame=  581 fps=231 q=16.0 size=    1536KiB time=00:00:19.36 bitrate= 649.7kbits/s dup=21 drop=0 speed=7.69x elapsed=0:00:02.51    [Parsed_mswitch_0 @ 0x105b0e0a0] [MSwitch] Buffer status (frame 580):
[Parsed_mswitch_0 @ 0x105b0e0a0]   Input 0: 0 frames queued (active: YES)
[Parsed_mswitch_0 @ 0x105b0e0a0]   Input 1: 2 frames queued (active: NO)
[Parsed_mswitch_0 @ 0x105b0e0a0]   Input 2: 2 frames queued (active: NO)
frame=  596 fps=197 q=16.0 size=    1536KiB time=00:00:19.86 bitrate= 633.4kbits/s dup=21 drop=0 speed=6.57x elapsed=0:00:03.02    [Parsed_mswitch_0 @ 0x105b0e0a0] [MSwitch] Buffer status (frame 590):
[Parsed_mswitch_0 @ 0x105b0e0a0]   Input 0: 0 frames queued (active: YES)
[Parsed_mswitch_0 @ 0x105b0e0a0]   Input 1: 2 frames queued (active: NO)
[Parsed_mswitch_0 @ 0x105b0e0a0]   Input 2: 2 frames queued (active: NO)
[Parsed_mswitch_0 @ 0x105b0e0a0] [MSwitch] Buffer status (frame 600):
[Parsed_mswitch_0 @ 0x105b0e0a0]   Input 0: 0 frames queued (active: YES)
[Parsed_mswitch_0 @ 0x105b0e0a0]   Input 1: 2 frames queued (active: NO)
[Parsed_mswitch_0 @ 0x105b0e0a0]   Input 2: 2 frames queued (active: NO)
frame=  611 fps=173 q=16.0 size=    1536KiB time=00:00:20.36 bitrate= 617.8kbits/s dup=21 drop=0 speed=5.77x elapsed=0:00:03.52    [Parsed_mswitch_0 @ 0x105b0e0a0] [MSwitch] Buffer status (frame 610):
[Parsed_mswitch_0 @ 0x105b0e0a0]   Input 0: 0 frames queued (active: YES)
[Parsed_mswitch_0 @ 0x105b0e0a0]   Input 1: 2 frames queued (active: NO)
[Parsed_mswitch_0 @ 0x105b0e0a0]   Input 2: 2 frames queued (active: NO)
frame=  626 fps=155 q=16.0 size=    1536KiB time=00:00:20.86 bitrate= 603.0kbits/s dup=21 drop=0 speed=5.18x elapsed=0:00:04.03    [Parsed_mswitch_0 @ 0x105b0e0a0] [MSwitch] Buffer status (frame 620):
[Parsed_mswitch_0 @ 0x105b0e0a0]   Input 0: 0 frames queued (active: YES)
[Parsed_mswitch_0 @ 0x105b0e0a0]   Input 1: 2 frames queued (active: NO)
[Parsed_mswitch_0 @ 0x105b0e0a0]   Input 2: 2 frames queued (active: NO)
[Parsed_mswitch_0 @ 0x105b0e0a0] [MSwitch] Buffer status (frame 630):
[Parsed_mswitch_0 @ 0x105b0e0a0]   Input 0: 0 frames queued (active: YES)
[Parsed_mswitch_0 @ 0x105b0e0a0]   Input 1: 2 frames queued (active: NO)
[Parsed_mswitch_0 @ 0x105b0e0a0]   Input 2: 2 frames queued (active: NO)
[BUFFER_TRACK] FFmpeg - Phase: startup, time: 1759556359665ms, active: 0
frame=  641 fps=141 q=16.0 size=    1792KiB time=00:00:21.36 bitrate= 687.1kbits/s dup=21 drop=0 speed=4.71x elapsed=0:00:04.53    [Parsed_mswitch_0 @ 0x105b0e0a0] [MSwitch] Buffer status (frame 640):
[Parsed_mswitch_0 @ 0x105b0e0a0]   Input 0: 0 frames queued (active: YES)
[Parsed_mswitch_0 @ 0x105b0e0a0]   Input 1: 2 frames queued (active: NO)
[Parsed_mswitch_0 @ 0x105b0e0a0]   Input 2: 2 frames queued (active: NO)
frame=  656 fps=130 q=16.0 size=    1792KiB time=00:00:21.86 bitrate= 671.3kbits/s dup=21 drop=0 speed=4.34x elapsed=0:00:05.04    [Parsed_mswitch_0 @ 0x105b0e0a0] [MSwitch] Buffer status (frame 650):
[Parsed_mswitch_0 @ 0x105b0e0a0]   Input 0: 0 frames queued (active: YES)
[Parsed_mswitch_0 @ 0x105b0e0a0]   Input 1: 2 frames queued (active: NO)
[Parsed_mswitch_0 @ 0x105b0e0a0]   Input 2: 2 frames queued (active: NO)
[Parsed_mswitch_0 @ 0x105b0e0a0] [MSwitch] Buffer status (frame 660):
[Parsed_mswitch_0 @ 0x105b0e0a0]   Input 0: 0 frames queued (active: YES)
[Parsed_mswitch_0 @ 0x105b0e0a0]   Input 1: 2 frames queued (active: NO)
[Parsed_mswitch_0 @ 0x105b0e0a0]   Input 2: 2 frames queued (active: NO)
frame=  672 fps=121 q=17.0 size=    1792KiB time=00:00:22.40 bitrate= 655.4kbits/s dup=21 drop=0 speed=4.04x elapsed=0:00:05.54    [Parsed_mswitch_0 @ 0x105b0e0a0] [MSwitch] Buffer status (frame 670):
[Parsed_mswitch_0 @ 0x105b0e0a0]   Input 0: 0 frames queued (active: YES)
[Parsed_mswitch_0 @ 0x105b0e0a0]   Input 1: 2 frames queued (active: NO)
[Parsed_mswitch_0 @ 0x105b0e0a0]   Input 2: 2 frames queued (active: NO)
frame=  687 fps=114 q=17.0 size=    1792KiB time=00:00:22.90 bitrate= 641.1kbits/s dup=21 drop=0 speed=3.78x elapsed=0:00:06.05    [Parsed_mswitch_0 @ 0x105b0e0a0] [MSwitch] Buffer status (frame 680):
[Parsed_mswitch_0 @ 0x105b0e0a0]   Input 0: 0 frames queued (active: YES)
[Parsed_mswitch_0 @ 0x105b0e0a0]   Input 1: 2 frames queued (active: NO)
[Parsed_mswitch_0 @ 0x105b0e0a0]   Input 2: 2 frames queued (active: NO)
[Parsed_mswitch_0 @ 0x105b0e0a0] [MSwitch] Buffer status (frame 690):
[Parsed_mswitch_0 @ 0x105b0e0a0]   Input 0: 0 frames queued (active: YES)
[Parsed_mswitch_0 @ 0x105b0e0a0]   Input 1: 2 frames queued (active: NO)
[Parsed_mswitch_0 @ 0x105b0e0a0]   Input 2: 2 frames queued (active: NO)
[BUFFER_TRACK] FFmpeg - Phase: startup, time: 1759556361686ms, active: 0
frame=  702 fps=107 q=17.0 size=    1792KiB time=00:00:23.40 bitrate= 627.4kbits/s dup=21 drop=0 speed=3.57x elapsed=0:00:06.55    [Parsed_mswitch_0 @ 0x105b0e0a0] [MSwitch] Buffer status (frame 700):
[Parsed_mswitch_0 @ 0x105b0e0a0]   Input 0: 0 frames queued (active: YES)
[Parsed_mswitch_0 @ 0x105b0e0a0]   Input 1: 2 frames queued (active: NO)
[Parsed_mswitch_0 @ 0x105b0e0a0]   Input 2: 2 frames queued (active: NO)
frame=  717 fps=102 q=18.0 size=    1792KiB time=00:00:23.90 bitrate= 614.2kbits/s dup=21 drop=0 speed=3.38x elapsed=0:00:07.06    [Parsed_mswitch_0 @ 0x105b0e0a0] [MSwitch] Buffer status (frame 710):
[Parsed_mswitch_0 @ 0x105b0e0a0]   Input 0: 0 frames queued (active: YES)
[Parsed_mswitch_0 @ 0x105b0e0a0]   Input 1: 2 frames queued (active: NO)
[Parsed_mswitch_0 @ 0x105b0e0a0]   Input 2: 2 frames queued (active: NO)
[Parsed_mswitch_0 @ 0x105b0e0a0] [MSwitch] Buffer status (frame 720):
[Parsed_mswitch_0 @ 0x105b0e0a0]   Input 0: 0 frames queued (active: YES)
[Parsed_mswitch_0 @ 0x105b0e0a0]   Input 1: 2 frames queued (active: NO)
[Parsed_mswitch_0 @ 0x105b0e0a0]   Input 2: 2 frames queued (active: NO)
frame=  732 fps= 97 q=17.0 size=    2048KiB time=00:00:24.40 bitrate= 687.6kbits/s dup=21 drop=0 speed=3.23x elapsed=0:00:07.56    [Parsed_mswitch_0 @ 0x105b0e0a0] [MSwitch] Buffer status (frame 730):
[Parsed_mswitch_0 @ 0x105b0e0a0]   Input 0: 0 frames queued (active: YES)
[Parsed_mswitch_0 @ 0x105b0e0a0]   Input 1: 2 frames queued (active: NO)
[Parsed_mswitch_0 @ 0x105b0e0a0]   Input 2: 2 frames queued (active: NO)
frame=  747 fps= 93 q=17.0 size=    2048KiB time=00:00:24.90 bitrate= 673.8kbits/s dup=21 drop=0 speed=3.09x elapsed=0:00:08.06    [Parsed_mswitch_0 @ 0x105b0e0a0] [MSwitch] Buffer status (frame 740):
[Parsed_mswitch_0 @ 0x105b0e0a0]   Input 0: 0 frames queued (active: YES)
[Parsed_mswitch_0 @ 0x105b0e0a0]   Input 1: 2 frames queued (active: NO)
[Parsed_mswitch_0 @ 0x105b0e0a0]   Input 2: 2 frames queued (active: NO)
[Parsed_mswitch_0 @ 0x105b0e0a0] [MSwitch] Buffer status (frame 750):
[Parsed_mswitch_0 @ 0x105b0e0a0]   Input 0: 0 frames queued (active: YES)
[Parsed_mswitch_0 @ 0x105b0e0a0]   Input 1: 2 frames queued (active: NO)
[Parsed_mswitch_0 @ 0x105b0e0a0]   Input 2: 2 frames queued (active: NO)
[BUFFER_TRACK] FFmpeg - Phase: startup, time: 1759556363703ms, active: 0
frame=  762 fps= 89 q=17.0 size=    2048KiB time=00:00:25.40 bitrate= 660.5kbits/s dup=21 drop=0 speed=2.96x elapsed=0:00:08.57    [Parsed_mswitch_0 @ 0x105b0e0a0] [MSwitch] Buffer status (frame 760):
[Parsed_mswitch_0 @ 0x105b0e0a0]   Input 0: 0 frames queued (active: YES)
[Parsed_mswitch_0 @ 0x105b0e0a0]   Input 1: 2 frames queued (active: NO)
[Parsed_mswitch_0 @ 0x105b0e0a0]   Input 2: 2 frames queued (active: NO)
[Parsed_mswitch_0 @ 0x105b0e0a0] [MSwitch] Buffer status (frame 770):
[Parsed_mswitch_0 @ 0x105b0e0a0]   Input 0: 0 frames queued (active: YES)
[Parsed_mswitch_0 @ 0x105b0e0a0]   Input 1: 2 frames queued (active: NO)
[Parsed_mswitch_0 @ 0x105b0e0a0]   Input 2: 2 frames queued (active: NO)
frame=  778 fps= 86 q=17.0 size=    2048KiB time=00:00:25.93 bitrate= 646.9kbits/s dup=21 drop=0 speed=2.86x elapsed=0:00:09.07    [Parsed_mswitch_0 @ 0x105b0e0a0] [MSwitch] Buffer status (frame 780):
[Parsed_mswitch_0 @ 0x105b0e0a0]   Input 0: 0 frames queued (active: YES)
[Parsed_mswitch_0 @ 0x105b0e0a0]   Input 1: 2 frames queued (active: NO)
[Parsed_mswitch_0 @ 0x105b0e0a0]   Input 2: 2 frames queued (active: NO)
frame=  793 fps= 83 q=17.0 size=    2048KiB time=00:00:26.43 bitrate= 634.7kbits/s dup=21 drop=0 speed=2.76x elapsed=0:00:09.58    [Parsed_mswitch_0 @ 0x105b0e0a0] [MSwitch] Buffer status (frame 790):
[Parsed_mswitch_0 @ 0x105b0e0a0]   Input 0: 0 frames queued (active: YES)
[Parsed_mswitch_0 @ 0x105b0e0a0]   Input 1: 2 frames queued (active: NO)
[Parsed_mswitch_0 @ 0x105b0e0a0]   Input 2: 2 frames queued (active: NO)
[Parsed_mswitch_0 @ 0x105b0e0a0] [MSwitch] Buffer status (frame 800):
[Parsed_mswitch_0 @ 0x105b0e0a0]   Input 0: 0 frames queued (active: YES)
[Parsed_mswitch_0 @ 0x105b0e0a0]   Input 1: 2 frames queued (active: NO)
[Parsed_mswitch_0 @ 0x105b0e0a0]   Input 2: 2 frames queued (active: NO)
frame=  808 fps= 80 q=17.0 size=    2304KiB time=00:00:26.93 bitrate= 700.8kbits/s dup=21 drop=0 speed=2.67x elapsed=0:00:10.08    [Parsed_mswitch_0 @ 0x105b0e0a0] [MSwitch] Buffer status (frame 810):
[Parsed_mswitch_0 @ 0x105b0e0a0]   Input 0: 0 frames queued (active: YES)
[Parsed_mswitch_0 @ 0x105b0e0a0]   Input 1: 2 frames queued (active: NO)
[Parsed_mswitch_0 @ 0x105b0e0a0]   Input 2: 2 frames queued (active: NO)
[BUFFER_TRACK] FFmpeg - Phase: startup, time: 1759556365718ms, active: 0
frame=  823 fps= 78 q=17.0 size=    2304KiB time=00:00:27.43 bitrate= 688.0kbits/s dup=21 drop=0 speed=2.59x elapsed=0:00:10.58    [Parsed_mswitch_0 @ 0x105b0e0a0] [MSwitch] Buffer status (frame 820):
[Parsed_mswitch_0 @ 0x105b0e0a0]   Input 0: 0 frames queued (active: YES)
[Parsed_mswitch_0 @ 0x105b0e0a0]   Input 1: 2 frames queued (active: NO)
[Parsed_mswitch_0 @ 0x105b0e0a0]   Input 2: 2 frames queued (active: NO)
[Parsed_mswitch_0 @ 0x105b0e0a0] [MSwitch] Buffer status (frame 830):
[Parsed_mswitch_0 @ 0x105b0e0a0]   Input 0: 0 frames queued (active: YES)
[Parsed_mswitch_0 @ 0x105b0e0a0]   Input 1: 2 frames queued (active: NO)
[Parsed_mswitch_0 @ 0x105b0e0a0]   Input 2: 2 frames queued (active: NO)
frame=  838 fps= 76 q=17.0 size=    2304KiB time=00:00:27.93 bitrate= 675.7kbits/s dup=21 drop=0 speed=2.52x elapsed=0:00:11.09    [Parsed_mswitch_0 @ 0x105b0e0a0] [MSwitch] Buffer status (frame 840):
[Parsed_mswitch_0 @ 0x105b0e0a0]   Input 0: 0 frames queued (active: YES)
[Parsed_mswitch_0 @ 0x105b0e0a0]   Input 1: 2 frames queued (active: NO)
[Parsed_mswitch_0 @ 0x105b0e0a0]   Input 2: 2 frames queued (active: NO)
frame=  853 fps= 74 q=17.0 size=    2304KiB time=00:00:28.43 bitrate= 663.8kbits/s dup=21 drop=0 speed=2.45x elapsed=0:00:11.59    [Parsed_mswitch_0 @ 0x105b0e0a0] [MSwitch] Buffer status (frame 850):
[Parsed_mswitch_0 @ 0x105b0e0a0]   Input 0: 0 frames queued (active: YES)
[Parsed_mswitch_0 @ 0x105b0e0a0]   Input 1: 2 frames queued (active: NO)
[Parsed_mswitch_0 @ 0x105b0e0a0]   Input 2: 2 frames queued (active: NO)
[Parsed_mswitch_0 @ 0x105b0e0a0] [MSwitch] Buffer status (frame 860):
[Parsed_mswitch_0 @ 0x105b0e0a0]   Input 0: 0 frames queued (active: YES)
[Parsed_mswitch_0 @ 0x105b0e0a0]   Input 1: 2 frames queued (active: NO)
[Parsed_mswitch_0 @ 0x105b0e0a0]   Input 2: 2 frames queued (active: NO)
frame=  868 fps= 72 q=17.0 size=    2304KiB time=00:00:28.93 bitrate= 652.3kbits/s dup=21 drop=0 speed=2.39x elapsed=0:00:12.10    [Parsed_mswitch_0 @ 0x105b0e0a0] [MSwitch] Buffer status (frame 870):
[Parsed_mswitch_0 @ 0x105b0e0a0]   Input 0: 0 frames queued (active: YES)
[Parsed_mswitch_0 @ 0x105b0e0a0]   Input 1: 2 frames queued (active: NO)
[Parsed_mswitch_0 @ 0x105b0e0a0]   Input 2: 2 frames queued (active: NO)
[BUFFER_TRACK] FFmpeg - Phase: startup, time: 1759556367735ms, active: 0
frame=  883 fps= 70 q=17.0 size=    2304KiB time=00:00:29.43 bitrate= 641.3kbits/s dup=21 drop=0 speed=2.34x elapsed=0:00:12.60    [Parsed_mswitch_0 @ 0x105b0e0a0] [MSwitch] Buffer status (frame 880):
[Parsed_mswitch_0 @ 0x105b0e0a0]   Input 0: 0 frames queued (active: YES)
[Parsed_mswitch_0 @ 0x105b0e0a0]   Input 1: 2 frames queued (active: NO)
[Parsed_mswitch_0 @ 0x105b0e0a0]   Input 2: 2 frames queued (active: NO)
[Parsed_mswitch_0 @ 0x105b0e0a0] [MSwitch] Buffer status (frame 890):
[Parsed_mswitch_0 @ 0x105b0e0a0]   Input 0: 0 frames queued (active: YES)
[Parsed_mswitch_0 @ 0x105b0e0a0]   Input 1: 2 frames queued (active: NO)
[Parsed_mswitch_0 @ 0x105b0e0a0]   Input 2: 2 frames queued (active: NO)
frame=  899 fps= 69 q=16.0 size=    2560KiB time=00:00:29.96 bitrate= 699.8kbits/s dup=21 drop=0 speed=2.29x elapsed=0:00:13.11    [Parsed_mswitch_0 @ 0x105b0e0a0] [MSwitch] Buffer status (frame 900):
[Parsed_mswitch_0 @ 0x105b0e0a0]   Input 0: 0 frames queued (active: YES)
[Parsed_mswitch_0 @ 0x105b0e0a0]   Input 1: 2 frames queued (active: NO)
[Parsed_mswitch_0 @ 0x105b0e0a0]   Input 2: 2 frames queued (active: NO)
frame=  914 fps= 67 q=16.0 size=    2560KiB time=00:00:30.46 bitrate= 688.3kbits/s dup=21 drop=0 speed=2.24x elapsed=0:00:13.61    [Parsed_mswitch_0 @ 0x105b0e0a0] [MSwitch] Buffer status (frame 910):
[Parsed_mswitch_0 @ 0x105b0e0a0]   Input 0: 0 frames queued (active: YES)
[Parsed_mswitch_0 @ 0x105b0e0a0]   Input 1: 2 frames queued (active: NO)
[Parsed_mswitch_0 @ 0x105b0e0a0]   Input 2: 2 frames queued (active: NO)
[Parsed_mswitch_0 @ 0x105b0e0a0] [MSwitch] Buffer status (frame 920):
[Parsed_mswitch_0 @ 0x105b0e0a0]   Input 0: 0 frames queued (active: YES)
[Parsed_mswitch_0 @ 0x105b0e0a0]   Input 1: 2 frames queued (active: NO)
[Parsed_mswitch_0 @ 0x105b0e0a0]   Input 2: 2 frames queued (active: NO)
frame=  929 fps= 66 q=16.0 size=    2560KiB time=00:00:30.96 bitrate= 677.2kbits/s dup=21 drop=0 speed=2.19x elapsed=0:00:14.12    [Parsed_mswitch_0 @ 0x105b0e0a0] [MSwitch] Buffer status (frame 930):
[Parsed_mswitch_0 @ 0x105b0e0a0]   Input 0: 0 frames queued (active: YES)
[Parsed_mswitch_0 @ 0x105b0e0a0]   Input 1: 2 frames queued (active: NO)
[Parsed_mswitch_0 @ 0x105b0e0a0]   Input 2: 2 frames queued (active: NO)
[BUFFER_TRACK] FFmpeg - Phase: startup, time: 1759556369760ms, active: 0
frame=  944 fps= 65 q=16.0 size=    2560KiB time=00:00:31.46 bitrate= 666.5kbits/s dup=21 drop=0 speed=2.15x elapsed=0:00:14.63    [Parsed_mswitch_0 @ 0x105b0e0a0] [MSwitch] Buffer status (frame 940):
[Parsed_mswitch_0 @ 0x105b0e0a0]   Input 0: 0 frames queued (active: YES)
[Parsed_mswitch_0 @ 0x105b0e0a0]   Input 1: 2 frames queued (active: NO)
[Parsed_mswitch_0 @ 0x105b0e0a0]   Input 2: 2 frames queued (active: NO)
[Parsed_mswitch_0 @ 0x105b0e0a0] [MSwitch] Buffer status (frame 950):
[Parsed_mswitch_0 @ 0x105b0e0a0]   Input 0: 0 frames queued (active: YES)
[Parsed_mswitch_0 @ 0x105b0e0a0]   Input 1: 2 frames queued (active: NO)
[Parsed_mswitch_0 @ 0x105b0e0a0]   Input 2: 2 frames queued (active: NO)
frame=  959 fps= 63 q=16.0 size=    2560KiB time=00:00:31.96 bitrate= 656.0kbits/s dup=21 drop=0 speed=2.11x elapsed=0:00:15.13    [Parsed_mswitch_0 @ 0x105b0e0a0] [MSwitch] Buffer status (frame 960):
[Parsed_mswitch_0 @ 0x105b0e0a0]   Input 0: 0 frames queued (active: YES)
[Parsed_mswitch_0 @ 0x105b0e0a0]   Input 1: 2 frames queued (active: NO)
[Parsed_mswitch_0 @ 0x105b0e0a0]   Input 2: 2 frames queued (active: NO)
frame=  974 fps= 62 q=16.0 size=    2560KiB time=00:00:32.46 bitrate= 645.9kbits/s dup=21 drop=0 speed=2.08x elapsed=0:00:15.63    [Parsed_mswitch_0 @ 0x105b0e0a0] [MSwitch] Buffer status (frame 970):
[Parsed_mswitch_0 @ 0x105b0e0a0]   Input 0: 0 frames queued (active: YES)
[Parsed_mswitch_0 @ 0x105b0e0a0]   Input 1: 2 frames queued (active: NO)
[Parsed_mswitch_0 @ 0x105b0e0a0]   Input 2: 2 frames queued (active: NO)
[Parsed_mswitch_0 @ 0x105b0e0a0] [MSwitch] Buffer status (frame 980):
[Parsed_mswitch_0 @ 0x105b0e0a0]   Input 0: 0 frames queued (active: YES)
[Parsed_mswitch_0 @ 0x105b0e0a0]   Input 1: 2 frames queued (active: NO)
[Parsed_mswitch_0 @ 0x105b0e0a0]   Input 2: 2 frames queued (active: NO)
frame=  990 fps= 61 q=17.0 size=    2816KiB time=00:00:33.00 bitrate= 699.1kbits/s dup=21 drop=0 speed=2.04x elapsed=0:00:16.14    [Parsed_mswitch_0 @ 0x105b0e0a0] [MSwitch] Buffer status (frame 990):
[Parsed_mswitch_0 @ 0x105b0e0a0]   Input 0: 0 frames queued (active: YES)
[Parsed_mswitch_0 @ 0x105b0e0a0]   Input 1: 2 frames queued (active: NO)
[Parsed_mswitch_0 @ 0x105b0e0a0]   Input 2: 2 frames queued (active: NO)
[BUFFER_TRACK] FFmpeg - Phase: startup, time: 1759556371777ms, active: 0
frame= 1005 fps= 60 q=17.0 size=    2816KiB time=00:00:33.50 bitrate= 688.6kbits/s dup=21 drop=0 speed=2.01x elapsed=0:00:16.64    [Parsed_mswitch_0 @ 0x105b0e0a0] [MSwitch] Buffer status (frame 1000):
[Parsed_mswitch_0 @ 0x105b0e0a0]   Input 0: 0 frames queued (active: YES)
[Parsed_mswitch_0 @ 0x105b0e0a0]   Input 1: 2 frames queued (active: NO)
[Parsed_mswitch_0 @ 0x105b0e0a0]   Input 2: 2 frames queued (active: NO)
[Parsed_mswitch_0 @ 0x105b0e0a0] [MSwitch] Buffer status (frame 1010):
[Parsed_mswitch_0 @ 0x105b0e0a0]   Input 0: 0 frames queued (active: YES)
[Parsed_mswitch_0 @ 0x105b0e0a0]   Input 1: 2 frames queued (active: NO)
[Parsed_mswitch_0 @ 0x105b0e0a0]   Input 2: 2 frames queued (active: NO)
frame= 1020 fps= 59 q=17.0 size=    2816KiB time=00:00:34.00 bitrate= 678.5kbits/s dup=21 drop=0 speed=1.98x elapsed=0:00:17.14    [Parsed_mswitch_0 @ 0x105b0e0a0] [MSwitch] Buffer status (frame 1020):
[Parsed_mswitch_0 @ 0x105b0e0a0]   Input 0: 0 frames queued (active: YES)
[Parsed_mswitch_0 @ 0x105b0e0a0]   Input 1: 2 frames queued (active: NO)
[Parsed_mswitch_0 @ 0x105b0e0a0]   Input 2: 2 frames queued (active: NO)
frame= 1035 fps= 59 q=17.0 size=    2816KiB time=00:00:34.50 bitrate= 668.7kbits/s dup=21 drop=0 speed=1.95x elapsed=0:00:17.65    [Parsed_mswitch_0 @ 0x105b0e0a0] [MSwitch] Buffer status (frame 1030):
[Parsed_mswitch_0 @ 0x105b0e0a0]   Input 0: 0 frames queued (active: YES)
[Parsed_mswitch_0 @ 0x105b0e0a0]   Input 1: 2 frames queued (active: NO)
[Parsed_mswitch_0 @ 0x105b0e0a0]   Input 2: 2 frames queued (active: NO)
[Parsed_mswitch_0 @ 0x105b0e0a0] [MSwitch] Buffer status (frame 1040):
[Parsed_mswitch_0 @ 0x105b0e0a0]   Input 0: 0 frames queued (active: YES)
[Parsed_mswitch_0 @ 0x105b0e0a0]   Input 1: 2 frames queued (active: NO)
[Parsed_mswitch_0 @ 0x105b0e0a0]   Input 2: 2 frames queued (active: NO)
frame= 1050 fps= 58 q=17.0 size=    2816KiB time=00:00:35.00 bitrate= 659.1kbits/s dup=21 drop=0 speed=1.93x elapsed=0:00:18.15    [Parsed_mswitch_0 @ 0x105b0e0a0] [MSwitch] Buffer status (frame 1050):
[Parsed_mswitch_0 @ 0x105b0e0a0]   Input 0: 0 frames queued (active: YES)
[Parsed_mswitch_0 @ 0x105b0e0a0]   Input 1: 2 frames queued (active: NO)
[Parsed_mswitch_0 @ 0x105b0e0a0]   Input 2: 2 frames queued (active: NO)
[BUFFER_TRACK] FFmpeg - Phase: startup, time: 1759556373793ms, active: 0
frame= 1065 fps= 57 q=17.0 size=    2816KiB time=00:00:35.50 bitrate= 649.8kbits/s dup=21 drop=0 speed= 1.9x elapsed=0:00:18.66    [Parsed_mswitch_0 @ 0x105b0e0a0] [MSwitch] Buffer status (frame 1060):
[Parsed_mswitch_0 @ 0x105b0e0a0]   Input 0: 0 frames queued (active: YES)
[Parsed_mswitch_0 @ 0x105b0e0a0]   Input 1: 2 frames queued (active: NO)
[Parsed_mswitch_0 @ 0x105b0e0a0]   Input 2: 2 frames queued (active: NO)
[Parsed_mswitch_0 @ 0x105b0e0a0] [MSwitch] Buffer status (frame 1070):
[Parsed_mswitch_0 @ 0x105b0e0a0]   Input 0: 0 frames queued (active: YES)
[Parsed_mswitch_0 @ 0x105b0e0a0]   Input 1: 2 frames queued (active: NO)
[Parsed_mswitch_0 @ 0x105b0e0a0]   Input 2: 2 frames queued (active: NO)
frame= 1080 fps= 56 q=17.0 size=    3072KiB time=00:00:36.00 bitrate= 699.1kbits/s dup=21 drop=0 speed=1.88x elapsed=0:00:19.16    [Parsed_mswitch_0 @ 0x105b0e0a0] [MSwitch] Buffer status (frame 1080):
[Parsed_mswitch_0 @ 0x105b0e0a0]   Input 0: 0 frames queued (active: YES)
[Parsed_mswitch_0 @ 0x105b0e0a0]   Input 1: 2 frames queued (active: NO)
[Parsed_mswitch_0 @ 0x105b0e0a0]   Input 2: 2 frames queued (active: NO)
frame= 1095 fps= 56 q=17.0 size=    3072KiB time=00:00:36.50 bitrate= 689.5kbits/s dup=21 drop=0 speed=1.86x elapsed=0:00:19.66    [Parsed_mswitch_0 @ 0x105b0e0a0] [MSwitch] Buffer status (frame 1090):
[Parsed_mswitch_0 @ 0x105b0e0a0]   Input 0: 0 frames queued (active: YES)
[Parsed_mswitch_0 @ 0x105b0e0a0]   Input 1: 2 frames queued (active: NO)
[Parsed_mswitch_0 @ 0x105b0e0a0]   Input 2: 2 frames queued (active: NO)
[Parsed_mswitch_0 @ 0x105b0e0a0] [MSwitch] Buffer status (frame 1100):
[Parsed_mswitch_0 @ 0x105b0e0a0]   Input 0: 0 frames queued (active: YES)
[Parsed_mswitch_0 @ 0x105b0e0a0]   Input 1: 2 frames queued (active: NO)
[Parsed_mswitch_0 @ 0x105b0e0a0]   Input 2: 2 frames queued (active: NO)
frame= 1110 fps= 55 q=17.0 size=    3072KiB time=00:00:37.00 bitrate= 680.2kbits/s dup=21 drop=0 speed=1.83x elapsed=0:00:20.17    [Parsed_mswitch_0 @ 0x105b0e0a0] [MSwitch] Buffer status (frame 1110):
[Parsed_mswitch_0 @ 0x105b0e0a0]   Input 0: 0 frames queued (active: YES)
[Parsed_mswitch_0 @ 0x105b0e0a0]   Input 1: 2 frames queued (active: NO)
[Parsed_mswitch_0 @ 0x105b0e0a0]   Input 2: 2 frames queued (active: NO)
[BUFFER_TRACK] FFmpeg - Phase: startup, time: 1759556375810ms, active: 0
frame= 1126 fps= 54 q=17.0 size=    3072KiB time=00:00:37.53 bitrate= 670.5kbits/s dup=21 drop=0 speed=1.81x elapsed=0:00:20.67    [Parsed_mswitch_0 @ 0x105b0e0a0] [MSwitch] Buffer status (frame 1120):
[Parsed_mswitch_0 @ 0x105b0e0a0]   Input 0: 0 frames queued (active: YES)
[Parsed_mswitch_0 @ 0x105b0e0a0]   Input 1: 2 frames queued (active: NO)
[Parsed_mswitch_0 @ 0x105b0e0a0]   Input 2: 2 frames queued (active: NO)
[Parsed_mswitch_0 @ 0x105b0e0a0] [MSwitch] Buffer status (frame 1130):
[Parsed_mswitch_0 @ 0x105b0e0a0]   Input 0: 0 frames queued (active: YES)
[Parsed_mswitch_0 @ 0x105b0e0a0]   Input 1: 2 frames queued (active: NO)
[Parsed_mswitch_0 @ 0x105b0e0a0]   Input 2: 2 frames queued (active: NO)
frame= 1141 fps= 54 q=17.0 size=    3072KiB time=00:00:38.03 bitrate= 661.7kbits/s dup=21 drop=0 speed= 1.8x elapsed=0:00:21.18    [Parsed_mswitch_0 @ 0x105b0e0a0] [MSwitch] Buffer status (frame 1140):
[Parsed_mswitch_0 @ 0x105b0e0a0]   Input 0: 0 frames queued (active: YES)
[Parsed_mswitch_0 @ 0x105b0e0a0]   Input 1: 2 frames queued (active: NO)
[Parsed_mswitch_0 @ 0x105b0e0a0]   Input 2: 2 frames queued (active: NO)
frame= 1156 fps= 53 q=17.0 size=    3072KiB time=00:00:38.53 bitrate= 653.1kbits/s dup=21 drop=0 speed=1.78x elapsed=0:00:21.68    [Parsed_mswitch_0 @ 0x105b0e0a0] [MSwitch] Buffer status (frame 1150):
[Parsed_mswitch_0 @ 0x105b0e0a0]   Input 0: 0 frames queued (active: YES)
[Parsed_mswitch_0 @ 0x105b0e0a0]   Input 1: 2 frames queued (active: NO)
[Parsed_mswitch_0 @ 0x105b0e0a0]   Input 2: 2 frames queued (active: NO)
[Parsed_mswitch_0 @ 0x105b0e0a0] [MSwitch] Buffer status (frame 1160):
[Parsed_mswitch_0 @ 0x105b0e0a0]   Input 0: 0 frames queued (active: YES)
[Parsed_mswitch_0 @ 0x105b0e0a0]   Input 1: 5 frames queued (active: NO)
[Parsed_mswitch_0 @ 0x105b0e0a0]   Input 2: 5 frames queued (active: NO)
[Parsed_mswitch_0 @ 0x105b0e0a0] [MSwitch Filter] Uninitialized
[out#0/mpegts @ 0x105d09180] video:3050KiB audio:0KiB subtitle:0KiB other streams:0KiB global headers:0KiB muxing overhead: 11.735953%
frame= 1188 fps= 54 q=-1.0 Lsize=    3408KiB time=00:00:39.60 bitrate= 704.9kbits/s dup=21 drop=0 speed= 1.8x elapsed=0:00:22.05    
[libx264 @ 0x105d0a4e0] frame I:20    Avg QP:14.30  size: 23366
[libx264 @ 0x105d0a4e0] frame P:1168  Avg QP:16.89  size:  2274
[libx264 @ 0x105d0a4e0] mb I  I16..4: 100.0%  0.0%  0.0%
[libx264 @ 0x105d0a4e0] mb P  I16..4:  0.4%  0.0%  0.0%  P16..4:  0.6%  0.0%  0.0%  0.0%  0.0%    skip:99.1%
[libx264 @ 0x105d0a4e0] coded y,uvDC,uvAC intra: 12.6% 13.2% 13.1% inter: 0.3% 0.5% 0.4%
[libx264 @ 0x105d0a4e0] i16 v,h,dc,p: 90%  7%  2%  0%
[libx264 @ 0x105d0a4e0] i8c dc,h,v,p: 87%  7%  6%  0%
[libx264 @ 0x105d0a4e0] kb/s:630.90
[MSwitch] Stopping MSwitch controller
[MSwitch] Stopping webhook server
[MSwitch] Webhook server stopped
[MSwitch] MSwitch controller stopped
[MSwitch] Stopping MSwitch controller
[MSwitch] MSwitch controller stopped
[MSwitch] Command queue cleaned up
[MSwitch] MSwitch cleanup completed
Exiting normally, received signal 15.
